<svg xmlns="http://www.w3.org/2000/svg" xmlns:xlink="http://www.w3.org/1999/xlink" width="30" height="30" viewBox="0 0 30 30"><defs><style>.a,.c{fill:#fff;}.a{stroke:#707070;}.b{clip-path:url(#a);}</style><clipPath id="a"><rect class="a" width="30" height="30" transform="translate(0.149 0.171)"/></clipPath></defs><g class="b" transform="translate(-0.149 -0.171)"><g transform="translate(0.907 0.851)"><g transform="translate(0)"><path class="c" d="M379.931,7011.125c3.757,0,4.2.015,5.686.082a7.76,7.76,0,0,1,2.612.485,4.656,4.656,0,0,1,2.67,2.669,7.782,7.782,0,0,1,.485,2.613c.068,1.483.082,1.929.082,5.687s-.014,4.2-.082,5.686a7.782,7.782,0,0,1-.485,2.613,4.661,4.661,0,0,1-2.67,2.67,7.786,7.786,0,0,1-2.612.485c-1.484.066-1.929.081-5.686.081s-4.2-.015-5.686-.081a7.791,7.791,0,0,1-2.613-.485,4.662,4.662,0,0,1-2.67-2.67,7.785,7.785,0,0,1-.485-2.613c-.068-1.484-.082-1.928-.082-5.686s.014-4.2.082-5.687a7.785,7.785,0,0,1,.485-2.613,4.656,4.656,0,0,1,2.67-2.669,7.766,7.766,0,0,1,2.613-.485c1.484-.067,1.929-.082,5.686-.082m0-2.535c-3.822,0-4.3.016-5.8.084a10.362,10.362,0,0,0-3.416.654,7.19,7.19,0,0,0-4.115,4.116,10.315,10.315,0,0,0-.654,3.415c-.069,1.5-.085,1.979-.085,5.8s.016,4.3.085,5.8a10.321,10.321,0,0,0,.654,3.415,7.192,7.192,0,0,0,4.115,4.115,10.314,10.314,0,0,0,3.416.653c1.5.069,1.98.086,5.8.086s4.3-.017,5.8-.086a10.306,10.306,0,0,0,3.416-.653,7.192,7.192,0,0,0,4.115-4.115,10.318,10.318,0,0,0,.655-3.415c.068-1.5.084-1.98.084-5.8s-.016-4.3-.084-5.8a10.313,10.313,0,0,0-.655-3.415,7.19,7.19,0,0,0-4.115-4.116,10.353,10.353,0,0,0-3.416-.654c-1.5-.068-1.98-.084-5.8-.084" transform="translate(-365.86 -7008.59)"/><path class="c" d="M382.068,7017.572a7.226,7.226,0,1,0,7.225,7.226,7.226,7.226,0,0,0-7.225-7.226m0,11.917a4.69,4.69,0,1,1,4.69-4.69,4.691,4.691,0,0,1-4.69,4.69" transform="translate(-367.997 -7010.727)"/><path class="c" d="M395.342,7016.67a1.689,1.689,0,1,1-1.689-1.688,1.689,1.689,0,0,1,1.689,1.688" transform="translate(-372.07 -7010.11)"/></g></g></g></svg>