<svg xmlns="http://www.w3.org/2000/svg" xmlns:xlink="http://www.w3.org/1999/xlink" width="29" height="30" viewBox="0 0 29 30"><defs><style>.a,.c{fill:#fff;}.a{stroke:#707070;}.b{clip-path:url(#a);}</style><clipPath id="a"><rect class="a" width="29" height="30" transform="translate(972 4111.584)"/></clipPath></defs><g class="b" transform="translate(-972 -4111.584)"><path class="c" d="M1000.459,7248.793l-1.949,1.95a3.365,3.365,0,0,1-2.367.981,3.3,3.3,0,0,1-1.444-.327,29.705,29.705,0,0,1-7.828-5.626,29.364,29.364,0,0,1-5.627-7.829,3.335,3.335,0,0,1,.656-3.825l1.949-1.935a.989.989,0,0,1,1.4,0l4,4.034a1,1,0,0,1,0,1.384l-1.444,1.473a15.111,15.111,0,0,0,2.471,3.186,14.917,14.917,0,0,0,3.17,2.455l1.5-1.458a1,1,0,0,1,1.4.014l4.107,4.124A.986.986,0,0,1,1000.459,7248.793Z" transform="translate(-4.33 -3115.223)"/></g></svg>