<svg xmlns="http://www.w3.org/2000/svg" xmlns:xlink="http://www.w3.org/1999/xlink" width="30" height="30" viewBox="0 0 30 30"><defs><style>.a,.c{fill:#fff;}.a{stroke:#707070;}.b{clip-path:url(#a);}</style><clipPath id="a"><rect class="a" width="30" height="30" transform="translate(0.298 0.171)"/></clipPath></defs><g class="b" transform="translate(-0.298 -0.171)"><g transform="translate(0.848 3.361)"><g transform="translate(0)"><path class="c" d="M450.209,7032.972a16.6,16.6,0,0,0,25.54-14.743,11.824,11.824,0,0,0,2.913-3.021,11.71,11.71,0,0,1-3.353.918,5.849,5.849,0,0,0,2.567-3.229,11.677,11.677,0,0,1-3.706,1.417,5.842,5.842,0,0,0-9.948,5.325,16.568,16.568,0,0,1-12.032-6.1,5.845,5.845,0,0,0,1.807,7.794,5.834,5.834,0,0,1-2.645-.73,5.842,5.842,0,0,0,4.682,5.8,5.847,5.847,0,0,1-2.636.1,5.842,5.842,0,0,0,5.453,4.054A11.737,11.737,0,0,1,450.209,7032.972Z" transform="translate(-450.209 -7012.472)"/></g></g></g></svg>