<svg xmlns="http://www.w3.org/2000/svg" xmlns:xlink="http://www.w3.org/1999/xlink" width="29" height="30" viewBox="0 0 29 30"><defs><style>.a,.c{fill:#fff;}.a{stroke:#707070;}.b{clip-path:url(#a);}.c{fill-rule:evenodd;}</style><clipPath id="a"><rect class="a" width="29" height="30" transform="translate(0.448 0.171)"/></clipPath></defs><g class="b" transform="translate(-0.448 -0.171)"><g transform="translate(-0.228)"><path class="c" d="M638.3,7022.747a14.651,14.651,0,0,0-29.275-.267c-.006.212-.014.425-.014.637a14.42,14.42,0,0,0,2.1,7.509l-2.64,7.8,8.113-2.578a14.668,14.668,0,0,0,21.726-12.729C638.305,7022.993,638.305,7022.87,638.3,7022.747Zm-14.64,12.591a12.266,12.266,0,0,1-6.776-2.024l-4.731,1.508,1.536-4.539a12.1,12.1,0,0,1-2.346-7.167,11.541,11.541,0,0,1,.061-1.186,12.321,12.321,0,0,1,24.53.233c.027.315.041.631.041.953A12.282,12.282,0,0,1,623.657,7035.338Z" transform="translate(-608.467 -7008.579)"/><path class="c" d="M632.286,7027.932c-.363-.178-2.126-1.042-2.455-1.159s-.569-.178-.809.179-.933,1.159-1.138,1.392-.418.267-.782.089a9.7,9.7,0,0,1-2.887-1.769,10.663,10.663,0,0,1-2-2.462c-.206-.356-.021-.549.157-.726s.357-.419.542-.625c.048-.061.089-.116.13-.171a4,4,0,0,0,.226-.426.64.64,0,0,0-.027-.624c-.089-.178-.809-1.935-1.111-2.648s-.6-.589-.809-.589-.446-.035-.686-.035a1.331,1.331,0,0,0-.96.446,3.991,3.991,0,0,0-1.254,2.976,4.514,4.514,0,0,0,.185,1.214,8.071,8.071,0,0,0,1.283,2.469c.178.234,2.482,3.95,6.13,5.384s3.655.946,4.313.885a3.582,3.582,0,0,0,2.421-1.694,2.943,2.943,0,0,0,.212-1.694C632.882,7028.2,632.643,7028.111,632.286,7027.932Z" transform="translate(-610.382 -7010.458)"/></g></g></svg>